<svg xmlns:xlink="http://www.w3.org/1999/xlink" class="stickers_sticker__kIw1P" fill="none" height="84" viewBox="0 0 60 84" width="60" xmlns="http://www.w3.org/2000/svg"><path d="M50.8887 65.1213L50.8886 65.0991C50.8887 65.0911 50.8887 65.083 50.8887 65.075V65.0747C50.8887 64.6966 50.8876 64.3197 50.8857 63.9441L50.8797 61.6303H50.8637C50.8464 60.3271 50.8224 59.0374 50.7985 57.7574C50.7115 53.0903 50.6268 48.5535 50.883 43.9718L50.8832 43.9687C50.8869 43.9017 50.8887 43.8346 50.8887 43.7677C50.8887 42.1811 49.9228 41.2256 49.4986 40.8766C49.0312 40.4921 48.5505 40.2735 48.2631 40.1565C47.6546 39.9087 46.962 39.7438 46.3426 39.6231C45.8182 39.5209 45.2214 39.4273 44.5654 39.342V31.6045H46.7557C50.9551 31.6045 54.3595 28.2002 54.3595 24.0007V14.7842C54.3595 11.4913 51.6901 8.82193 48.3972 8.82193H47.8043C45.5548 8.82193 43.5955 10.0677 42.5802 11.9077C40.1141 7.77102 35.5955 5 30.4297 5C23.1938 5 17.2277 10.4369 16.3937 17.4483C15.3064 16.2958 13.7648 15.5766 12.0557 15.5766H11.4627C8.16985 15.5766 5.50046 18.246 5.50046 21.5389V30.7554C5.50046 34.9548 8.90479 38.3592 13.1043 38.3592H16.294V39.342C15.638 39.4273 15.0412 39.5209 14.5168 39.6231C13.8974 39.7438 13.2048 39.9087 12.5963 40.1565C12.3089 40.2735 11.8282 40.4921 11.3608 40.8766C10.9366 41.2255 9.9707 42.1811 9.9707 43.7677C9.9707 46.1353 9.97075 48.5028 9.9708 50.8703C9.97087 54.4584 9.97095 58.0465 9.97085 61.6345H9.9707V65.0747V65.075V65.1345C9.9707 71.6876 15.283 77 21.8361 77H39.0233C45.5764 77 50.8887 71.6876 50.8887 65.1345L50.8887 65.1256L50.8887 65.1213Z" stroke="#FFFFFF" stroke-width="7px" fill="none"></path><rect fill="#EBEBEB" height="21.302" width="33.918" x="13.4708" y="43.7732"></rect><path d="M13.4708 65.1344H47.3888V65.1344C47.3888 69.7545 43.6434 73.4998 39.0233 73.4998H21.8362C17.2161 73.4998 13.4708 69.7545 13.4708 65.1344V65.1344Z" fill="#E79C13"></path><path d="M34.4674 73.4998H39.0192C43.6415 73.4998 47.3885 69.7527 47.3885 65.1305H42.8368C42.8368 69.7527 39.0897 73.4998 34.4674 73.4998Z" fill="#A35200"></path><ellipse cx="30.4298" cy="43.768" fill="#D9D9D9" rx="16.959" ry="1.61627"></ellipse><ellipse cx="30.4296" cy="43.7677" fill="#454545" rx="14.928" ry="1.01687"></ellipse><path d="M43.4599 22.5872H39.6287C38.6502 22.5872 37.8569 23.3805 37.8569 24.359V26.3328C37.8569 27.3114 38.6502 28.1046 39.6287 28.1046H47.9062C49.5372 28.1046 50.8593 26.7825 50.8593 25.1515V14.0939C50.8593 13.1154 50.066 12.3221 49.0874 12.3221H47.1137C46.1351 12.3221 45.3418 13.1147 45.3418 14.0932V20.5769C45.3418 22.0825 44.0872 22.5444 43.4599 22.5872Z" fill="#46A758"></path><path d="M16.4 29.3427H20.2312C21.2098 29.3427 22.0031 30.136 22.0031 31.1146V33.0883C22.0031 34.0669 21.2098 34.8602 20.2312 34.8602H11.9537C10.3228 34.8602 9.00062 33.538 9.00062 31.9071V20.8495C9.00062 19.8709 9.79391 19.0776 10.7725 19.0776H12.7462C13.7248 19.0776 14.5181 19.8702 14.5181 20.8488V27.3325C14.5181 28.838 15.7727 29.2999 16.4 29.3427Z" fill="#6CDA76"></path><path clip-rule="evenodd" d="M9.00012 30.2102V31.9057C9.00012 33.5366 10.3223 34.8588 11.9532 34.8588H20.2307C21.2093 34.8588 22.0026 34.0655 22.0026 33.0869V31.3915C22.0026 32.37 21.2093 33.1633 20.2307 33.1633H11.9532C10.3223 33.1633 9.00012 31.8412 9.00012 30.2102Z" fill="#46A758" fill-rule="evenodd"></path><path clip-rule="evenodd" d="M28.653 8.50049C23.7602 8.50049 19.7937 12.4669 19.7937 17.3598V44.4577C22.521 44.6588 26.4254 44.7848 30.7616 44.7848C34.757 44.7848 38.3859 44.6778 41.0651 44.5037V17.3598C41.0651 12.4669 37.0986 8.50049 32.2057 8.50049H28.653Z" fill="#6CDA76" fill-rule="evenodd"></path><ellipse cx="30.4298" cy="65.0746" fill="#EBEBEB" rx="16.959" ry="1.61627"></ellipse><path clip-rule="evenodd" d="M47.3888 43.7684C47.3888 44.1924 45.691 44.5785 42.9106 44.8677V66.1737C44.3938 66.0018 46.8409 65.6354 47.389 65.2289V43.7664H47.3888L47.3888 43.7684Z" fill="#D9D9D9" fill-rule="evenodd"></path><path d="M41.0474 18.7199C40.6917 16.5859 40.6285 14.505 37.9097 11.6237C41.5005 21.7464 37.513 45.638 21.1281 44.4175C26.0436 44.9358 36.3345 44.8645 41.0652 44.5225C41.0538 36.0185 41.4031 20.8539 41.0474 18.7199Z" fill="#46A758"></path><path d="M28.2491 9.2504C27.0863 10.1682 24.7609 13.2444 24.7609 18.2069C24.7609 23.1695 24.7609 37.5907 24.7609 44.1809" stroke="#1A9338" stroke-dasharray="1.57 1.57" stroke-linecap="round" stroke-width="0.590622px" fill="none"></path><path d="M32.353 9.50249C33.5157 10.4203 35.8412 13.4964 35.8412 18.459C35.8412 23.4216 35.8412 37.8428 35.8412 44.433" stroke="#1A9338" stroke-dasharray="1.57 1.57" stroke-linecap="round" stroke-width="0.590622px" fill="none"></path><path d="M30.3008 8.95598L30.3008 43.7677" stroke="#1A9338" stroke-dasharray="1.57 1.57" stroke-linecap="round" stroke-width="0.590622px" fill="none"></path><path d="M11.5597 20.4466V29.73C11.5597 30.3824 12.0886 30.9112 12.741 30.9112H19.9041" stroke="#1A9338" stroke-dasharray="1.57 1.57" stroke-linecap="round" stroke-width="0.590622px" fill="none"></path><path d="M48.0724 13.8122V23.6749C48.0724 24.3272 47.5436 24.8561 46.8912 24.8561H41.4491" stroke="#388E4A" stroke-dasharray="1.57 1.57" stroke-linecap="round" stroke-width="0.590622px" fill="none"></path><path d="M48.8887 65.1262L48.8886 65.0938C48.8887 65.0875 48.8887 65.0812 48.8887 65.075V65.0749C48.8887 64.6909 48.8875 64.3074 48.8854 63.9243L48.8846 63.6303H48.8836C48.8708 61.7097 48.8353 59.799 48.8 57.896C48.7126 53.1805 48.626 48.5126 48.8861 43.8602L48.8862 43.8588C48.8879 43.8282 48.8887 43.7978 48.8887 43.7677C48.8887 43.0514 48.4527 42.606 48.2281 42.4212C47.9849 42.2212 47.7152 42.0928 47.5088 42.0088C47.0814 41.8347 46.5394 41.6991 45.96 41.5862C45.0691 41.4125 43.9143 41.2603 42.5654 41.1317V29.6045H46.7557C49.8506 29.6045 52.3595 27.0956 52.3595 24.0007V14.7842C52.3595 12.5959 50.5855 10.8219 48.3972 10.8219H47.8043C45.6164 10.8219 43.842 12.595 43.842 14.7837V20.5768C43.842 20.7384 43.81 20.8181 43.7936 20.851C43.776 20.8862 43.7506 20.9186 43.7077 20.9524C43.6608 20.9893 43.5959 21.0251 43.5183 21.0525C43.4626 21.0722 43.4156 21.0823 43.386 21.087H42.5654V19.1357C42.5654 12.4333 37.132 7 30.4297 7C23.7273 7 18.294 12.4333 18.294 19.1357V27.8417H16.4739C16.4443 27.837 16.3973 27.8269 16.3416 27.8072C16.264 27.7798 16.1991 27.744 16.1522 27.7071C16.1094 27.6733 16.0839 27.6409 16.0663 27.6057C16.0499 27.5728 16.0179 27.4931 16.0179 27.3315V21.5384C16.0179 19.3497 14.2436 17.5766 12.0557 17.5766H11.4627C9.27443 17.5766 7.50046 19.3506 7.50046 21.5389V30.7554C7.50046 33.8503 10.0094 36.3592 13.1043 36.3592H18.294V41.1317C16.9451 41.2603 15.7903 41.4125 14.8994 41.5862C14.3199 41.6991 13.778 41.8347 13.3506 42.0088C13.1442 42.0928 12.8745 42.2212 12.6313 42.4212C12.4067 42.606 11.9707 43.0514 11.9707 43.7677C11.9707 46.1356 11.9707 48.5035 11.9708 50.8714C11.9709 55.1258 11.971 59.3802 11.9708 63.6345H11.9707V65.0749V65.075V65.1345C11.9707 70.5831 16.3876 75 21.8361 75H39.0233C44.4718 75 48.8887 70.5831 48.8887 65.1345L48.8887 65.1305L48.8887 65.1262Z" stroke="#000000" stroke-width="3px" fill="none"></path></svg>