<svg xmlns:xlink="http://www.w3.org/1999/xlink" class="stickers_sticker__kIw1P" fill="none" height="75" viewBox="0 0 59 75" width="59" xmlns="http://www.w3.org/2000/svg"><path clip-rule="evenodd" d="M15.7418 15.9807C15.743 15.9801 15.7442 15.9795 15.7455 15.9789C15.7108 15.9977 15.7067 15.9972 15.7418 15.9807ZM17.0302 16.6943L17.2852 15.514C17.5042 15.4628 17.7476 15.4098 18.0169 15.356C20.6439 14.8313 24.5499 14.4625 29.0555 14.4625C33.561 14.4625 37.4671 14.8313 40.094 15.356C40.3636 15.4098 40.6073 15.4629 40.8264 15.5142L41.0806 16.6945L40.9088 16.759L37.3858 51.5541L36.6591 52.0002L36.2247 57.4668C34.4821 57.8449 31.9768 58.1215 29.0524 58.1215C26.136 58.1215 23.6364 57.8464 21.8944 57.4699L21.4583 51.9941L20.7281 51.5486L17.202 16.7588L17.0302 16.6943ZM42.3654 15.9789C42.3705 15.9816 42.3748 15.9839 42.3786 15.9859C42.3975 15.9956 42.3991 15.9952 42.3799 15.9858C42.3769 15.9843 42.3733 15.9826 42.3692 15.9807C42.3679 15.9801 42.3667 15.9795 42.3654 15.9789ZM15.5761 3.13484C19.2238 2.40631 23.9862 2 29.0555 2C34.1248 2 38.8871 2.40631 42.5349 3.13484C44.3074 3.48886 46.1455 3.98178 47.6906 4.71138C48.4472 5.06865 49.4712 5.63753 50.3925 6.53669C51.22 7.34439 52.3386 8.80821 52.5775 10.8844L52.7336 11.6089C53.339 12.3862 53.9478 13.4839 54.1638 14.871L54.8453 17.8623C54.9793 18.3985 55.0537 18.9655 55.0537 19.5532C55.0537 22.2073 53.6328 23.9792 52.6089 24.919L49.5418 55.212C49.4703 56.3725 49.1272 57.3443 48.6729 58.1421L48.4194 61.3328C48.2525 65.0658 45.3914 67.0235 44.3883 67.6304C42.9776 68.4837 41.3511 69.0309 39.8908 69.4045C36.8759 70.176 33.0467 70.584 29.0524 70.584C25.0582 70.584 21.2289 70.176 18.214 69.4045C16.7537 69.0309 15.1272 68.4837 13.7166 67.6304C12.689 67.0087 9.712 64.9698 9.67808 61.0572L9.44722 58.1586C8.97712 57.3384 8.62451 56.3334 8.56445 55.1278L5.5031 24.9232C4.4784 23.984 3.05371 22.211 3.05371 19.5532C3.05371 18.8704 3.15395 18.223 3.3261 17.6245L3.92109 15.0538C4.11 13.5803 4.74644 12.4183 5.37945 11.6063L5.53127 10.9037C5.76543 8.81729 6.88839 7.34689 7.71849 6.5367C8.63974 5.63753 9.66378 5.06865 10.4204 4.71138C11.9655 3.98178 13.8036 3.48886 15.5761 3.13484Z" fill="#FFFFFF" fill-rule="evenodd"></path><path d="M9.97262 22.28L13.2691 54.804C13.2827 55.5267 13.642 56.0653 14.039 56.4457L14.3931 60.8914C14.3917 60.9241 14.3911 60.9569 14.3911 60.9897C14.3911 62.3048 15.4013 63.1409 16.1562 63.5975C17.0029 64.1097 18.127 64.5171 19.3823 64.8383C21.9158 65.4866 25.334 65.8707 29.0523 65.8707C32.7706 65.8707 36.1889 65.4865 38.7224 64.8383C39.9777 64.5171 41.1018 64.1097 41.9486 63.5975C42.6892 63.1494 43.6758 62.336 43.7126 61.0632L44.0801 56.4378C44.4632 56.0679 44.8099 55.5495 44.84 54.8589L48.1388 22.278C48.5363 22.0852 48.9019 21.8689 49.2138 21.6235C49.7226 21.2232 50.3403 20.5386 50.3403 19.5532C50.3403 19.3519 50.3132 19.1566 50.2635 18.9704L49.5205 15.7089C49.461 15.1438 49.1891 14.6909 48.8991 14.3661C48.752 14.2012 48.5874 14.0539 48.4142 13.9218L47.9011 11.4916C47.8391 10.798 47.4657 10.2659 47.0986 9.90802C46.6993 9.51891 46.1923 9.2161 45.6761 8.9725C44.636 8.48167 43.2281 8.07956 41.6098 7.75645C38.3483 7.10524 33.9106 6.71326 29.0554 6.71326C24.1993 6.71326 19.7608 7.10539 16.4991 7.75682C14.8808 8.08004 13.4728 8.4823 12.4329 8.97337C11.9168 9.21707 11.4097 9.52011 11.0106 9.90964C10.6248 10.2862 10.2327 10.8551 10.2025 11.6014L9.702 13.9177C9.52509 14.0522 9.35707 14.2025 9.20728 14.3711C8.89978 14.7171 8.61413 15.2072 8.58136 15.821L7.88252 18.8404C7.80906 19.0629 7.76697 19.3021 7.76697 19.5532C7.76697 20.5396 8.3858 21.2245 8.89508 21.6248C9.20766 21.8705 9.5741 22.087 9.97262 22.28Z" fill="#292929" stroke="#292929" stroke-width="3.03588px"></path><path d="M46.9545 18.9082L43.3244 54.7618H43.3124C43.2992 55.0606 43.0582 55.3486 42.6226 55.6189L42.1959 60.9901C42.1946 62.8472 36.3106 64.3526 29.0525 64.3526C21.7945 64.3526 15.9105 62.8472 15.9092 60.9901L15.4838 55.63C15.0241 55.3487 14.7754 55.0481 14.7754 54.7359L14.7756 54.7204L11.1567 18.9082H46.9545Z" fill="url(&quot;#cof-hjOMcGmgnHXuXYGj7-KxK-:rgr:-0&quot;)"></path><path clip-rule="evenodd" d="M26.529 21.1591L11.3984 21.1304L11.5955 23.5981C11.5953 23.6026 11.5952 23.6072 11.5952 23.6117C11.5952 24.9804 19.4124 26.09 29.0554 26.09C38.5365 26.09 46.2526 25.0174 46.509 23.6804L46.5155 23.6804L46.7122 21.1973L32.046 21.1695C31.0743 21.1457 30.075 21.1333 29.0554 21.1333C28.1974 21.1333 27.3538 21.1421 26.529 21.1591Z" fill="#0A0A0A" fill-rule="evenodd"></path><ellipse cx="29.0554" cy="15.9389" fill="#FFFFFF" rx="18.9592" ry="3.46356"></ellipse><ellipse cx="29.0553" cy="11.6938" fill="#FFFFFF" rx="17.3368" ry="3.46256" shape-rendering="geometricPrecision"></ellipse><path clip-rule="evenodd" d="M42.2346 11.8136C42.2346 11.8136 42.234 11.8148 42.2323 11.8171C42.2336 11.8148 42.2345 11.8136 42.2346 11.8136ZM41.5737 11.627C41.8325 11.7391 42.0071 11.8409 42.1164 11.923C42.0071 12.005 41.8325 12.1068 41.5737 12.2189C40.947 12.4904 39.9933 12.7526 38.7569 12.9791C36.2965 13.4299 32.8661 13.7134 29.0554 13.7134C25.2448 13.7134 21.8144 13.4299 19.354 12.9791C18.1176 12.7526 17.1639 12.4904 16.5372 12.2189C16.2784 12.1068 16.1038 12.005 15.9944 11.9229C16.1038 11.8409 16.2784 11.7391 16.5372 11.627C17.1639 11.3555 18.1176 11.0933 19.354 10.8668C21.8144 10.4159 25.2448 10.1325 29.0554 10.1325C32.8661 10.1325 36.2965 10.4159 38.7569 10.8668C39.9933 11.0933 40.947 11.3555 41.5737 11.627ZM15.8786 11.8171C15.8773 11.8148 15.8764 11.8136 15.8763 11.8136C15.8763 11.8136 15.8766 11.8143 15.8776 11.8157C15.8779 11.8161 15.8782 11.8166 15.8786 11.8171ZM15.8763 12.0323C15.8762 12.0323 15.8769 12.0311 15.8786 12.0288C15.8773 12.0311 15.8764 12.0323 15.8763 12.0323ZM42.2346 12.0323C42.2346 12.0323 42.234 12.0311 42.2323 12.0288C42.2333 12.0305 42.234 12.0316 42.2343 12.032C42.2345 12.0322 42.2345 12.0323 42.2346 12.0323ZM42.9688 11.9229C42.9688 13.331 36.7396 14.4724 29.0554 14.4724C21.3713 14.4724 15.1421 13.331 15.1421 11.9229C15.1421 10.5149 21.3713 9.37354 29.0554 9.37354C36.7396 9.37354 42.9688 10.5149 42.9688 11.9229ZM29.0556 15.1566C38.6304 15.1566 46.3924 13.6063 46.3924 11.694V11.6938H46.3945L47.088 14.988C47.1045 15.0389 47.1154 15.0901 47.1203 15.1415L47.1234 15.1564H47.1216C47.1228 15.1731 47.1234 15.1899 47.1234 15.2067C47.1234 17.119 39.0341 18.6693 29.0554 18.6693C19.0767 18.6693 10.9873 17.119 10.9873 15.2067C10.9873 15.1899 10.9879 15.1731 10.9892 15.1564H10.9873L10.9904 15.1422C10.9956 15.0878 11.0073 15.0337 11.0254 14.9799L11.7217 11.758C11.8926 13.6408 19.5878 15.1566 29.0556 15.1566ZM29.0554 19.402C39.5263 19.402 48.0147 17.8513 48.0147 15.9384L48.0146 15.9312L48.8074 19.4008C48.8181 19.4513 48.8226 19.5022 48.8226 19.5533C48.8226 21.6186 39.9718 23.2928 29.0539 23.2928C18.1359 23.2928 9.28516 21.6186 9.28516 19.5533C9.28516 19.4766 9.29737 19.4004 9.32144 19.3248L10.0988 15.9964C10.2682 17.8825 18.6905 19.402 29.0554 19.402Z" fill="#EBEBEB" fill-rule="evenodd"></path><path d="M26.63 10.2432C26.6807 10.0593 26.848 9.93188 27.0388 9.93188H31.072C31.2628 9.93188 31.4301 10.0593 31.4808 10.2432V10.2432C31.5553 10.5132 31.3521 10.78 31.072 10.78H27.0388C26.7587 10.78 26.5555 10.5132 26.63 10.2432V10.2432Z" fill="#A8A8A8"></path><path clip-rule="evenodd" d="M29.3269 36.3794L33.6271 43.4162H25.0266L29.3269 36.3794Z" fill="#FFFFFF" fill-rule="evenodd"></path><path clip-rule="evenodd" d="M15.8325 55.8203C17.9613 56.8652 23.0746 57.6013 29.0442 57.6013C35.0086 57.6013 40.1183 56.8664 42.2504 55.823C42.4557 55.9862 42.5639 56.1557 42.5639 56.3296C42.5639 57.6307 36.5089 58.6854 29.0397 58.6854C21.5706 58.6854 15.5156 57.6307 15.5156 56.3296C15.5156 56.1547 15.625 55.9843 15.8325 55.8203Z" fill="#0A0A0A" fill-rule="evenodd" opacity="0.5"></path><defs><linearGradient gradientUnits="userSpaceOnUse" id="cof-hjOMcGmgnHXuXYGj7-KxK-:rgr:-0" x1="13.5269" x2="41.0269" y1="36.5" y2="37.5"><stop stop-color="#101010"></stop><stop offset="0.381896" stop-color="#292929"></stop><stop offset="0.723958" stop-color="#2A2A2A"></stop><stop offset="1" stop-color="#141414"></stop></linearGradient></defs></svg>