<svg xmlns:xlink="http://www.w3.org/1999/xlink" class="stickers_sticker__kIw1P" fill="none" height="77" viewBox="0 0 70 77" width="70" xmlns="http://www.w3.org/2000/svg"><path d="M30.38 16.625C29.5063 14.3817 24.6518 10.8329 22.0893 9.07708C21.4248 8.62173 20.5376 9.11637 20.5423 9.91754C20.5618 13.3005 20.3527 18.0773 19.5422 21.2284C12.6248 25.8699 8.10452 33.5449 8.10452 42.2273C8.10452 56.3949 20.1402 67.88 34.9871 67.88C49.8339 67.88 61.8696 56.3949 61.8696 42.2273C61.8696 36.0299 59.5665 30.3457 55.7325 25.9117C57.2808 15.5508 54.3393 10.5091 51.7971 8.29957C51.0972 7.69125 50.063 7.85663 49.428 8.53132L41.2074 17.2649C39.2109 16.8135 37.1282 16.5747 34.987 16.5747C33.4457 16.5747 31.9346 16.6984 30.4642 16.9362C30.4479 16.8319 30.4201 16.7281 30.38 16.625Z" stroke="#FFFFFF" stroke-width="10px" fill="none"></path><path d="M49.432 8.52643L39.9822 18.5659L55.5333 27.1284C57.5077 15.9342 54.4315 10.5865 51.7905 8.29493C51.0918 7.68861 50.0653 7.85365 49.432 8.52643Z" fill="url(&quot;#doge-OC1YZ7GXTj0sZkJlvSHqe-:rik:-0&quot;)"></path><ellipse cx="34.9871" cy="42.2259" fill="url(&quot;#doge-OC1YZ7GXTj0sZkJlvSHqe-:rik:-1&quot;)" rx="26.8825" ry="25.6527"></ellipse><path d="M50.6593 22.6898C51.2566 23.085 52.0807 22.7863 52.2081 22.0815C52.776 18.9415 52.8521 15.0501 51.1675 12.1916C50.838 11.6325 50.0576 11.657 49.6756 12.1823L45.0941 18.4815C44.6969 19.0277 44.9443 19.8028 45.573 20.0494C47.375 20.7561 49.0787 21.6442 50.6593 22.6898Z" fill="#FF990A"></path><path d="M46.881 20.6C48.204 21.1996 49.4675 21.8992 50.6608 22.6887C51.2582 23.0839 52.0823 22.7852 52.2097 22.0804C52.7774 18.9406 52.8533 15.0497 51.1689 12.1916C50.9321 11.7899 50.4626 11.6894 50.0753 11.8596C49.9183 14.8435 49.4418 18.408 46.881 20.6Z" fill="#A35200"></path><path d="M22.0848 9.07396C24.6463 10.8289 29.5049 14.38 30.379 16.6243C31.5767 19.6995 21.7853 23.3833 21.7853 23.3833L18.2626 24.0288C20.1483 22.1043 20.5683 14.6526 20.5413 9.92173C20.5368 9.1163 21.4198 8.61838 22.0848 9.07396Z" fill="url(&quot;#doge-OC1YZ7GXTj0sZkJlvSHqe-:rik:-2&quot;)"></path><path clip-rule="evenodd" d="M21.3283 10.2654C23.5338 12.5119 27.5148 16.6965 27.7113 17.8249C27.9174 19.0085 29.7379 18.5347 30.6129 18.2336C30.5967 18.1285 30.5688 18.024 30.5283 17.9201C29.6543 15.6758 24.7956 12.1247 22.2341 10.3697C21.943 10.1703 21.6102 10.1536 21.3283 10.2654Z" fill="#FF990A" fill-rule="evenodd"></path><path clip-rule="evenodd" d="M34.9859 67.8806C49.8327 67.8806 61.8685 56.3955 61.8685 42.2279C61.8685 41.8329 61.8591 41.44 61.8406 41.0494C61.6283 40.7515 61.2671 40.2866 60.9451 39.8723C60.6428 39.4834 60.3752 39.1389 60.2977 39.0187C56.2619 32.7542 50.5707 34.4654 48.8309 35.4172C48.3843 35.6616 47.7613 36.0722 47.0103 36.5672L47.0101 36.5672C44.8361 38.0002 41.5897 40.1399 38.4443 40.9995C35.0588 41.9247 31.9906 41.8419 29.7281 39.5379C28.9204 38.6294 24.1723 36.1113 19.7194 36.8752C15.5864 37.5843 15.0831 36.6094 14.8551 35.7567C14.8021 35.5585 14.7708 35.3566 14.739 35.1511C14.6155 34.3541 14.4835 33.5022 13.0421 32.594C11.6659 31.7269 10.6374 32.1479 10.0671 32.5854C8.80088 35.5623 8.1034 38.8174 8.1034 42.2279C8.1034 56.3955 20.1391 67.8806 34.9859 67.8806Z" fill="url(&quot;#doge-OC1YZ7GXTj0sZkJlvSHqe-:rik:-3&quot;)" fill-rule="evenodd"></path><path d="M17.3877 39.0964C18.1257 37.7913 19.7215 37.6691 21.3966 37.8024C24.0388 38.0136 27.8401 38.8929 26.3592 42.489C25.7539 43.7312 24.1727 46.2459 22.1154 46.4149C19.5438 46.6261 17.8067 44.0289 17.4809 43.2182C17.085 42.2331 16.5901 40.507 17.3877 39.0964Z" fill="#171717"></path><path d="M14.9383 46.5804C15.4284 47.5669 15.9528 49.5462 18.1506 49.3657C20.3483 49.1852 21.2664 47.9897 21.2911 45.6552" stroke="#171717" stroke-linecap="round" stroke-width="2.5px" fill="none"></path><path d="M32.2903 47.4259C31.4631 49.1398 29.6616 50.2537 27.5717 50.2723C24.2555 50.3019 21.2442 48.4887 21.3477 46.0669" stroke="#171717" stroke-linecap="round" stroke-width="2.5px" fill="none"></path><path d="M41.5651 34.5763C41.4416 36.5886 39.8576 38.1303 37.829 38.0078C35.8004 37.8854 33.3859 34.9856 33.4411 34.0859C33.5227 32.7563 36.2474 30.5983 38.276 30.7207C40.3046 30.8432 41.6885 32.564 41.5651 34.5763Z" fill="#FFFFFF"></path><path d="M22.4963 32.7386C21.9719 34.4538 20.2819 35.4638 18.5527 34.9436C16.8236 34.4234 15.3371 31.4224 15.5716 30.6555C15.9181 29.5222 18.7226 28.2121 20.4517 28.7322C22.1808 29.2524 23.0207 31.0234 22.4963 32.7386Z" fill="#FFFFFF"></path><ellipse cx="3.67978" cy="3.65039" fill="#171717" rx="3.67978" ry="3.65039" transform="matrix(0.998183 0.0602508 -0.0612285 0.998124 34.8404 30.5146)"></ellipse><ellipse cx="3.33657" cy="3.31008" fill="#171717" rx="3.33657" ry="3.31008" transform="matrix(0.996644 -0.0818542 0.0831783 0.996535 16.2066 28.876)"></ellipse><ellipse cx="1.02146" cy="1.0133" fill="#FFFFFF" rx="1.02146" ry="1.0133" transform="matrix(0.998183 0.0602508 -0.0612285 0.998124 37.0914 32.5059)"></ellipse><ellipse cx="0.988343" cy="0.980499" fill="#FFFFFF" rx="0.988343" ry="0.980499" transform="matrix(0.996644 -0.0818542 0.0831783 0.996535 19.4884 29.959)"></ellipse><path d="M20.1032 24.1083C20.8464 23.0384 22.6219 23.7392 23.4145 23.9828C23.9697 24.1217 26.2158 25.7648 24.5964 27.4204C23.7089 28.3278 22.1605 27.9317 21.4498 27.5467C20.4675 26.7892 19.5363 24.9244 20.1032 24.1083Z" fill="#FFFFFF"></path><path d="M41.6067 25.407C41.1157 24.1208 39.1121 24.3954 38.2353 24.4468C37.6292 24.4502 34.9015 25.5752 36.1436 27.6834C36.8244 28.8388 38.5168 28.8204 39.3455 28.603C40.5483 28.071 41.9812 26.3881 41.6067 25.407Z" fill="#FFFFFF"></path><path d="M18.9098 55.6514C19.6874 57.7032 25.1116 60.0579 28.5193 56.5423" stroke="#171717" stroke-linecap="round" stroke-width="2.5px" fill="none"></path><path d="M30.38 16.625C29.5063 14.3817 24.6518 10.8329 22.0893 9.07708C21.4248 8.62173 20.5376 9.11637 20.5423 9.91754C20.5618 13.3005 20.3527 18.0773 19.5422 21.2284C12.6248 25.8699 8.10452 33.5449 8.10452 42.2273C8.10452 56.3949 20.1402 67.88 34.9871 67.88C49.8339 67.88 61.8696 56.3949 61.8696 42.2273C61.8696 36.0299 59.5665 30.3457 55.7325 25.9117C57.2808 15.5508 54.3393 10.5091 51.7971 8.29957C51.0972 7.69125 50.063 7.85663 49.428 8.53132L41.2074 17.2649C39.2109 16.8135 37.1282 16.5747 34.987 16.5747C33.4457 16.5747 31.9346 16.6984 30.4642 16.9362C30.4479 16.8319 30.4201 16.7281 30.38 16.625Z" stroke="#000000" stroke-width="3px" fill="none"></path><path clip-rule="evenodd" d="M32.7892 63.0984C47.636 63.0984 59.6717 51.6133 59.6717 37.4457C59.6717 32.9106 58.4385 28.6504 56.2746 24.9538C59.9589 29.3441 62.1624 34.9149 62.1624 40.9769C62.1624 55.1445 50.1267 66.6296 35.2799 66.6296C25.1855 66.6296 16.3907 61.3205 11.7945 53.4688C16.7209 59.339 24.295 63.0984 32.7892 63.0984Z" fill="black" fill-rule="evenodd" opacity="0.2"></path><defs><linearGradient gradientUnits="userSpaceOnUse" id="doge-OC1YZ7GXTj0sZkJlvSHqe-:rik:-0" x1="47.1293" x2="48.7741" y1="7.65719" y2="27.6836"><stop stop-color="#FFC251"></stop><stop offset="1" stop-color="#FFC04A"></stop></linearGradient><linearGradient gradientUnits="userSpaceOnUse" id="doge-OC1YZ7GXTj0sZkJlvSHqe-:rik:-1" x1="34.9871" x2="34.9871" y1="16.5732" y2="67.8786"><stop stop-color="#FFC251"></stop><stop offset="1" stop-color="#FFA90C"></stop></linearGradient><linearGradient gradientUnits="userSpaceOnUse" id="doge-OC1YZ7GXTj0sZkJlvSHqe-:rik:-2" x1="23.3054" x2="24.5963" y1="7.7906" y2="23.5086"><stop stop-color="#FFC14D"></stop><stop offset="1" stop-color="#FFC04B"></stop></linearGradient><linearGradient gradientUnits="userSpaceOnUse" id="doge-OC1YZ7GXTj0sZkJlvSHqe-:rik:-3" x1="33.9768" x2="37.0626" y1="30.2336" y2="67.8064"><stop stop-color="#FFF8E3"></stop><stop offset="1" stop-color="#FFF4D5"></stop></linearGradient></defs></svg>