<svg xmlns:xlink="http://www.w3.org/1999/xlink" class="stickers_sticker__kIw1P" fill="none" height="70" viewBox="0 0 70 70" width="70" xmlns="http://www.w3.org/2000/svg"><path d="M10.4828 46.5934C10.4828 39.024 13.3079 34.9791 15.227 33.331C12.8661 32.5251 9.11934 32.0412 8.0695 29.4578C7.62382 28.3611 9.4328 27.8687 10.4828 27.6672C11.3228 27.5061 12.4006 26.7315 12.8345 26.3643C12.8345 24.0921 13.6529 20.1947 14.3931 18.0432C15.1705 15.7836 18.4862 7.5 30.5228 7.5C43.5753 7.5 46.382 19.6224 45.5097 25.5403C46.9802 25.0908 51.8511 23.9512 55.9739 24.7958C62.3843 26.1089 61.9404 33.2862 61.5889 38.9708L61.5856 39.024C61.0622 47.4888 59.6415 60.0736 34.8921 60.9725C19.2549 61.5405 10.4828 53.1946 10.4828 46.5934Z" fill="#FFFFFF" stroke="#FFFFFF" stroke-linecap="round" stroke-linejoin="round" stroke-width="10px"></path><path d="M10.4828 46.5934C10.4828 39.024 13.3079 34.9791 15.227 33.331C12.8661 32.5251 9.11934 32.0412 8.0695 29.4578C7.62382 28.3611 9.4328 27.8687 10.4828 27.6672C11.3228 27.5061 12.4006 26.7315 12.8345 26.3643C12.8345 24.0921 13.6529 20.1947 14.3931 18.0432C15.1705 15.7836 18.4862 7.5 30.5228 7.5C43.5753 7.5 46.382 19.6224 45.5097 25.5403C46.9802 25.0908 51.8511 23.9512 55.9739 24.7958C62.3843 26.1089 61.9404 33.2862 61.5889 38.9708L61.5856 39.024C61.0622 47.4888 59.6415 60.0736 34.8921 60.9725C19.2549 61.5405 10.4828 53.1946 10.4828 46.5934Z" fill="#FFB224"></path><g opacity="0.2" fill="none"><path d="M10.6099 43.8987C10.5277 44.7426 10.4829 45.6401 10.4829 46.5935C10.4829 53.1947 19.255 61.5406 34.8922 60.9727C59.6416 60.0737 61.0623 47.4889 61.5857 39.0241L61.589 38.971C61.7097 37.0188 61.8413 34.8905 61.7025 32.8842C61.6703 33.56 61.629 34.2272 61.589 34.8751L61.5857 34.9282C61.0623 43.393 59.6416 55.9778 34.8922 56.8767C20.3441 57.4051 11.7381 50.2181 10.6099 43.8987Z" fill="black"></path><path d="M45.5439 21.4342C45.5392 21.3916 45.5343 21.349 45.5293 21.3063C45.523 21.3527 45.5165 21.3988 45.5098 21.4446C45.5209 21.4411 45.5323 21.4377 45.5439 21.4342Z" fill="black"></path></g><path d="M23.2754 36.6979C35.5254 38.386 42.4212 30.0369 44.3379 25.6514L46.5254 26.6443C41.5254 38.5101 28.9421 38.2908 23.2754 36.6979Z" fill="#FF990A"></path><path d="M56.7548 43.3453C57.8478 42.6259 58.6215 40.8204 57.8478 39.4463C56.6923 37.3941 54.1017 39.5231 54.1017 39.5231C54.1017 39.5231 58.6199 35.322 55.4044 33.4219C52.6856 31.8153 49.7456 36.8825 45.2985 37.7479C40.9365 38.5967 38.8413 41.2976 39.355 44.884" stroke="#000000" stroke-linecap="round" stroke-linejoin="round" stroke-width="2.5px" fill="none"></path><ellipse cx="27.6115" cy="23.063" fill="black" rx="3.97629" ry="3.94825"></ellipse><ellipse cx="26.6319" cy="22.5496" fill="#FFFFFF" rx="1.20858" ry="1.22881"></ellipse><path d="M10.1128 27.7506C10.8276 27.5917 12.0624 27.0685 12.4316 26.7065C12.9406 26.1242 12.9761 24.9684 14.4004 24.7825C15.8797 24.5896 17.249 27.0525 18.9852 28.2803C20.7214 29.5081 22.4033 30.7988 22.2677 32.4003C22.1138 34.2175 16.4166 33.943 14.1501 33.3337C11.8837 32.7245 8.95242 32.0623 8.05899 29.5156C7.67971 28.4345 9.21918 27.9491 10.1128 27.7506Z" fill="#EF7134"></path><path d="M10.4828 46.5934C10.4828 39.024 13.3079 34.9791 15.227 33.331C12.8661 32.5251 9.11934 32.0412 8.0695 29.4578C7.62382 28.3611 9.4328 27.8687 10.4828 27.6672C11.3228 27.5061 12.4006 26.7315 12.8345 26.3643C12.8345 24.0921 13.6529 20.1947 14.3931 18.0432C15.1705 15.7836 18.4862 7.5 30.5228 7.5C43.5753 7.5 46.382 19.6224 45.5097 25.5403C46.9802 25.0908 51.8511 23.9512 55.9739 24.7958C62.3843 26.1089 61.9404 33.2862 61.5889 38.9708L61.5856 39.024C61.0622 47.4888 59.6415 60.0736 34.8921 60.9725C19.2549 61.5405 10.4828 53.1946 10.4828 46.5934Z" stroke="#000000" stroke-linecap="round" stroke-linejoin="round" stroke-width="2.5px" fill="none"></path></svg>