<svg xmlns:xlink="http://www.w3.org/1999/xlink" class="stickers_sticker__kIw1P" fill="none" height="71" viewBox="0 0 69 71" width="69" xmlns="http://www.w3.org/2000/svg"><path d="M12.7304 18.7013C17.9067 10.6423 29.2973 8.73334 34.4466 8.78621C39.596 8.73334 50.9865 10.6423 56.1628 18.7013C58.9309 23.011 58.0941 25.8989 56.022 27.8896V31.3233C56.0215 31.4631 56.0108 31.602 55.9901 31.74C57.1549 32.5463 58.9667 34.5298 57.9274 36.8168C57.7426 37.2237 57.5247 37.5511 57.2822 37.8146C58.1087 38.7813 58.557 39.8174 58.557 40.8951C58.557 41.9148 58.1557 42.8972 57.4124 43.8188C57.4124 47.4125 57.4124 47.6334 57.4124 50.8319C57.4124 55.6299 47.1846 59.5194 34.5679 59.5194C21.9512 59.5194 11.7234 55.6299 11.7234 50.8319C11.7234 47.6563 11.7234 47.5508 11.7234 44.0603C10.8499 43.0696 10.375 42.0044 10.375 40.8951C10.375 39.9442 10.724 39.0257 11.3739 38.1587C10.4972 37.5417 9.88368 36.7577 9.86663 35.7107C9.83327 33.6625 11.7919 32.573 13.0108 32.2028C12.9196 31.9141 12.8723 31.6207 12.8713 31.3233L12.8713 31.3139V27.8896C10.7992 25.8989 9.96238 23.011 12.7304 18.7013Z" fill="#FFFFFF"></path><path clip-rule="evenodd" d="M34.4465 2.15313C37.7225 2.128 42.6105 2.70007 47.5254 4.45544C52.4552 6.21611 58.0816 9.41541 61.7436 15.1168C63.628 18.0507 64.7946 21.2915 64.5186 24.7004C64.3671 26.5721 63.8054 28.1987 63.0266 29.5852C63.2442 29.9086 63.4514 30.251 63.6434 30.6125C64.5997 32.4135 65.2343 34.8659 64.644 37.5396C64.987 38.5694 65.1898 39.6907 65.1898 40.8952C65.1898 42.6874 64.7396 44.2997 64.0452 45.6995V50.8319C64.0452 54.5726 62.0269 57.3701 60.0518 59.1459C58.0745 60.9237 55.587 62.2209 53.079 63.1747C48.0164 65.0999 41.4699 66.1523 34.5678 66.1523C27.6656 66.1523 21.1191 65.0999 16.0566 63.1747C13.5485 62.2209 11.0611 60.9237 9.08377 59.1459C7.10867 57.3701 5.09038 54.5726 5.09038 50.8319V46.0912C4.28208 44.6059 3.74195 42.8626 3.74195 40.8952C3.74195 40.2793 3.79526 39.684 3.89359 39.1109C3.5049 38.1525 3.25468 37.0577 3.2345 35.8187C3.18823 32.978 4.34501 30.7734 5.68609 29.2522C5.00144 27.9402 4.51396 26.4243 4.3744 24.7003C4.09844 21.2915 5.26502 18.0507 7.14946 15.1168C10.8115 9.41541 16.4378 6.21611 21.3676 4.45544C26.2825 2.70007 31.1705 2.128 34.4465 2.15313ZM25.8294 16.9483C22.4825 18.1437 19.8255 19.9284 18.3112 22.286C18.0057 22.7615 17.8299 23.1154 17.7292 23.3589L19.504 25.0639V30.7383L21.3563 36.6003L20.6767 36.8067L17.6871 40.7951L18.3562 41.554V49.5888C18.8212 49.9033 19.5957 50.3279 20.772 50.7752C23.9775 51.9943 28.8533 52.8866 34.5678 52.8866C40.2823 52.8866 45.158 51.9943 48.3636 50.7752C49.5399 50.3279 50.3143 49.9033 50.7794 49.5888V41.4774L51.2199 40.9313L48.417 37.6532L50.1531 35.7664L48.8179 34.842L49.389 31.0331V25.064L51.1638 23.3589C51.0631 23.1154 50.8873 22.7615 50.5819 22.286C49.0676 19.9284 46.4105 18.1437 43.0636 16.9483C39.736 15.7599 36.3879 15.3996 34.5146 15.4188L34.4465 15.4195L34.3784 15.4188C32.5051 15.3996 29.157 15.7599 25.8294 16.9483ZM14.9799 38.5368L14.9382 38.5495C14.9406 38.5488 14.9434 38.548 14.9467 38.547C14.9551 38.5447 14.9661 38.5415 14.9799 38.5368Z" fill="#FFFFFF" fill-rule="evenodd"></path><path d="M11.247 31.1802C10.786 31.4222 10.3133 31.7321 9.88194 32.1208C8.99458 32.9202 8.21634 34.1249 8.2426 35.7371C8.26097 36.8653 8.70084 37.7632 9.30126 38.4662C8.95082 39.2215 8.75071 40.0349 8.75071 40.8951C8.75071 42.2843 9.27073 43.5443 10.0991 44.6386V44.6403V44.6585V44.6767V44.6948V44.7128V44.7308V44.7486V44.7665V44.7842V44.8019V44.8195V44.8371V44.8545V44.872V44.8893V44.9066V44.9238V44.941V44.9581V44.9751V44.9921V45.009V45.0258V45.0426V45.0593V45.076V45.0926V45.1091V45.1256V45.142V45.1584V45.1747V45.1909V45.2071V45.2232V45.2392V45.2552V45.2712V45.2871V45.3029V45.3186V45.3344V45.35V45.3656V45.3811V45.3966V45.412V45.4274V45.4427V45.458V45.4732V45.4883V45.5034V45.5185V45.5335V45.5484V45.5633V45.5781V45.5929V45.6076V45.6223V45.6369V45.6515V45.666V45.6805V45.6949V45.7093V45.7236V45.7379V45.7521V45.7662V45.7804V45.7944V45.8085V45.8224V45.8364V45.8503V45.8641V45.8779V45.8916V45.9053V45.919V45.9326V45.9462V45.9597V45.9731V45.9866V46V46.0133V46.0266V46.0398V46.0531V46.0662V46.0794V46.0924V46.1055V46.1185V46.1314V46.1444V46.1572V46.1701V46.1829V46.1956V46.2084V46.221V46.2337V46.2463V46.2588V46.2714V46.2839V46.2963V46.3087V46.3211V46.3335V46.3458V46.358V46.3703V46.3825V46.3946V46.4067V46.4188V46.4309V46.4429V46.4549V46.4669V46.4788V46.4907V46.5026V46.5144V46.5262V46.538V46.5497V46.5614V46.5731V46.5847V46.5963V46.6079V46.6194V46.631V46.6425V46.6539V46.6654V46.6768V46.6882V46.6995V46.7108V46.7221V46.7334V46.7447V46.7559V46.7671V46.7782V46.7894V46.8005V46.8116V46.8227V46.8337V46.8447V46.8557V46.8667V46.8776V46.8886V46.8995V46.9104V46.9212V46.9321V46.9429V46.9537V46.9645V46.9752V46.986V46.9967V47.0074V47.0181V47.0287V47.0394V47.05V47.0606V47.0712V47.0818V47.0923V47.1028V47.1134V47.1239V47.1344V47.1448V47.1553V47.1657V47.1762V47.1866V47.197V47.2073V47.2177V47.2281V47.2384V47.2487V47.2591V47.2694V47.2797V47.2899V47.3002V47.3105V47.3207V47.331V47.3412V47.3514V47.3616V47.3718V47.382V47.3922V47.4024V47.4125V47.4227V47.4328V47.443V47.4531V47.4632V47.4734V47.4835V47.4936V47.5037V47.5138V47.5239V47.534V47.544V47.5541V47.5642V47.5743V47.5843V47.5944V47.6045V47.6145V47.6246V47.6346V47.6447V47.6548V47.6648V47.6749V47.6849V47.695V47.705V47.7151V47.7251V47.7352V47.7452V47.7553V47.7653V47.7754V47.7855V47.7955V47.8056V47.8157V47.8257V47.8358V47.8459V47.856V47.8661V47.8762V47.8863V47.8964V47.9065V47.9166V47.9268V47.9369V47.947V47.9572V47.9674V47.9775V47.9877V47.9979V48.0081V48.0183V48.0285V48.0387V48.0489V48.0592V48.0694V48.0797V48.0899V48.1002V48.1105V48.1208V48.1311V48.1415V48.1518V48.1622V48.1725V48.1829V48.1933V48.2037V48.2142V48.2246V48.2351V48.2455V48.256V48.2665V48.277V48.2876V48.2981V48.3087V48.3193V48.3299V48.3405V48.3512V48.3618V48.3725V48.3832V48.3939V48.4047V48.4154V48.4262V48.437V48.4478V48.4587V48.4695V48.4804V48.4913V48.5022V48.5132V48.5242V48.5352V48.5462V48.5572V48.5683V48.5794V48.5905V48.6017V48.6128V48.624V48.6352V48.6465V48.6578V48.6691V48.6804V48.6917V48.7031V48.7145V48.726V48.7374V48.7489V48.7605V48.772V48.7836V48.7952V48.8068V48.8185V48.8302V48.842V48.8537V48.8655V48.8773V48.8892V48.9011V48.913V48.925V48.937V48.949V48.9611V48.9732V48.9853V48.9975V49.0097V49.0219V49.0342V49.0465V49.0588V49.0712V49.0836V49.0961V49.1086V49.1211V49.1336V49.1462V49.1589V49.1716V49.1843V49.1971V49.2099V49.2227V49.2356V49.2485V49.2615V49.2745V49.2875V49.3006V49.3137V49.3269V49.3401V49.3533V49.3666V49.38V49.3934V49.4068V49.4203V49.4338V49.4474V49.461V49.4746V49.4883V49.5021V49.5159V49.5297V49.5436V49.5575V49.5715V49.5855V49.5996V49.6137V49.6279V49.6421V49.6564V49.6707V49.6851V49.6995V49.714V49.7285V49.7431V49.7577V49.7724V49.7871V49.8019V49.8167V49.8316V49.8465V49.8615V49.8765V49.8916V49.9068V49.922V49.9373V49.9526V49.9679V49.9834V49.9989V50.0144V50.03V50.0456V50.0613V50.0771V50.0929V50.1088V50.1248V50.1408V50.1568V50.1729V50.1891V50.2053V50.2216V50.238V50.2544V50.2709V50.2874V50.304V50.3207V50.3374V50.3542V50.371V50.3879V50.4049V50.4219V50.439V50.4562V50.4734V50.4907V50.5081V50.5255V50.543V50.5605V50.5782V50.5958V50.6136V50.6314V50.6493V50.6672V50.6853V50.7034V50.7215V50.7397V50.758V50.7764V50.7948V50.8133V50.8319C10.0991 52.6537 11.0761 54.2016 12.4327 55.4213C13.7898 56.6415 15.662 57.6659 17.837 58.4931C22.1985 60.1517 28.1141 61.1437 34.5679 61.1437C41.0216 61.1437 46.9373 60.1517 51.2987 58.4931C53.4738 57.6659 55.346 56.6415 56.7031 55.4213C58.0597 54.2016 59.0366 52.6537 59.0366 50.8319V50.8132V50.7945V50.776V50.7575V50.739V50.7207V50.7024V50.6841V50.666V50.6478V50.6298V50.6118V50.5939V50.5761V50.5583V50.5406V50.5229V50.5053V50.4878V50.4703V50.4529V50.4356V50.4183V50.4011V50.3839V50.3668V50.3498V50.3328V50.3159V50.2991V50.2823V50.2655V50.2489V50.2322V50.2157V50.1992V50.1827V50.1663V50.15V50.1337V50.1175V50.1014V50.0853V50.0692V50.0532V50.0373V50.0214V50.0056V49.9898V49.9741V49.9585V49.9429V49.9273V49.9118V49.8963V49.881V49.8656V49.8503V49.8351V49.8199V49.8048V49.7897V49.7746V49.7596V49.7447V49.7298V49.715V49.7002V49.6855V49.6708V49.6561V49.6415V49.627V49.6125V49.598V49.5836V49.5693V49.555V49.5407V49.5265V49.5123V49.4982V49.4841V49.47V49.4561V49.4421V49.4282V49.4143V49.4005V49.3867V49.373V49.3593V49.3456V49.332V49.3185V49.3049V49.2915V49.278V49.2646V49.2512V49.2379V49.2246V49.2114V49.1982V49.185V49.1719V49.1588V49.1457V49.1327V49.1197V49.1068V49.0939V49.081V49.0682V49.0554V49.0426V49.0299V49.0172V49.0045V48.9919V48.9793V48.9668V48.9542V48.9417V48.9293V48.9169V48.9045V48.8921V48.8798V48.8675V48.8552V48.843V48.8308V48.8186V48.8065V48.7944V48.7823V48.7702V48.7582V48.7462V48.7342V48.7223V48.7104V48.6985V48.6866V48.6748V48.663V48.6512V48.6395V48.6278V48.6161V48.6044V48.5927V48.5811V48.5695V48.5579V48.5464V48.5349V48.5234V48.5119V48.5004V48.489V48.4776V48.4662V48.4548V48.4434V48.4321V48.4208V48.4095V48.3983V48.387V48.3758V48.3646V48.3534V48.3422V48.3311V48.3199V48.3088V48.2977V48.2866V48.2756V48.2645V48.2535V48.2425V48.2315V48.2205V48.2095V48.1986V48.1876V48.1767V48.1658V48.1549V48.144V48.1332V48.1223V48.1115V48.1006V48.0898V48.079V48.0682V48.0574V48.0466V48.0359V48.0251V48.0144V48.0037V47.9929V47.9822V47.9715V47.9608V47.9502V47.9395V47.9288V47.9182V47.9075V47.8969V47.8862V47.8756V47.865V47.8543V47.8437V47.8331V47.8225V47.8119V47.8013V47.7907V47.7801V47.7695V47.759V47.7484V47.7378V47.7272V47.7167V47.7061V47.6955V47.685V47.6744V47.6639V47.6533V47.6427V47.6322V47.6216V47.6111V47.6005V47.5899V47.5794V47.5688V47.5582V47.5477V47.5371V47.5265V47.5159V47.5053V47.4948V47.4842V47.4736V47.463V47.4524V47.4418V47.4311V47.4205V47.4099V47.3993V47.3886V47.378V47.3673V47.3567V47.346V47.3353V47.3246V47.314V47.3033V47.2925V47.2818V47.2711V47.2604V47.2496V47.2388V47.2281V47.2173V47.2065V47.1957V47.1849V47.1741V47.1632V47.1524V47.1415V47.1306V47.1197V47.1088V47.0979V47.087V47.076V47.065V47.0541V47.0431V47.032V47.021V47.01V46.9989V46.9878V46.9767V46.9656V46.9545V46.9433V46.9322V46.921V46.9098V46.8986V46.8873V46.876V46.8648V46.8535V46.8421V46.8308V46.8194V46.808V46.7966V46.7852V46.7737V46.7622V46.7507V46.7392V46.7277V46.7161V46.7045V46.6929V46.6812V46.6696V46.6579V46.6461V46.6344V46.6226V46.6108V46.599V46.5871V46.5753V46.5634V46.5514V46.5395V46.5275V46.5154V46.5034V46.4913V46.4792V46.4671V46.4549V46.4427V46.4305V46.4182V46.4059V46.3936V46.3812V46.3688V46.3564V46.344V46.3315V46.319V46.3064V46.2938V46.2812V46.2686V46.2559V46.2431V46.2304V46.2176V46.2048V46.1919V46.179V46.1661V46.1531V46.1401V46.127V46.1139V46.1008V46.0876V46.0744V46.0612V46.0479V46.0346V46.0212V46.0078V45.9944V45.9809V45.9674V45.9538V45.9402V45.9266V45.9129V45.8992V45.8854V45.8716V45.8577V45.8438V45.8299V45.8159V45.8018V45.7878V45.7736V45.7595V45.7453V45.731V45.7167V45.7023V45.6879V45.6735V45.659V45.6445V45.6299V45.6152V45.6006V45.5858V45.571V45.5562V45.5413V45.5264V45.5114V45.4964V45.4813V45.4662V45.451V45.4358V45.4205V45.4052V45.3898V45.3743V45.3588V45.3433V45.3277V45.312V45.2963V45.2806V45.2647V45.2489V45.2329V45.217V45.2009V45.1848V45.1687V45.1525V45.1362V45.1199V45.1035V45.0871V45.0706V45.054V45.0374V45.0208V45.004V44.9872V44.9704V44.9535V44.9365V44.9195V44.9024V44.8853V44.8681V44.8508V44.8335V44.8161V44.7986V44.7811V44.7635V44.7458V44.7281V44.7104V44.6925V44.6746V44.6567V44.6386V44.6205V44.6024V44.5841V44.5658V44.5475V44.529V44.5106V44.492V44.4734V44.4547V44.4359V44.4171V44.3982V44.3792V44.3601V44.3571C59.746 43.3295 60.1813 42.1647 60.1813 40.8951C60.1813 39.766 59.8375 38.7215 59.2635 37.7821C59.3131 37.6867 59.3607 37.589 59.4062 37.4888C60.1813 35.783 59.8659 34.1781 59.2198 32.9614C58.7919 32.1555 58.2081 31.4878 57.6462 30.9842V28.5437C58.6462 27.4223 59.387 26.0188 59.5265 24.2961C59.6863 22.3215 59.036 20.1692 57.5295 17.8236C54.6784 13.3846 50.1731 10.7194 45.8409 9.17221C41.5128 7.62641 37.1939 7.13583 34.4466 7.16188C31.6994 7.13583 27.3804 7.62641 23.0523 9.17221C18.7202 10.7194 14.2149 13.3846 11.3638 17.8236C9.85724 20.1692 9.20698 22.3215 9.36684 24.2961C9.50629 26.0188 10.2471 27.4223 11.247 28.5436V31.1802Z" stroke="#292929" stroke-width="3.2485px" fill="none"></path><path clip-rule="evenodd" d="M47.804 43.7505H57.4125V50.8522H57.4123C57.3838 55.6409 47.1669 59.5196 34.5679 59.5196C21.9512 59.5196 11.7234 55.63 11.7234 50.832C11.7234 50.8243 11.7234 50.8165 11.7235 50.8087V43.7505H21.3318C25.0661 42.7393 29.6343 42.1445 34.5679 42.1445C39.5014 42.1445 44.0697 42.7393 47.804 43.7505Z" fill="url(&quot;#burg-yOnghEFhs94qysL1Pi_qJ-:rg3:-0&quot;)" fill-rule="evenodd"></path><path clip-rule="evenodd" d="M31.9134 55.9033C44.4398 55.9033 54.5945 52.1389 54.5945 47.4953C54.5945 46.1498 53.742 44.8782 52.2263 43.7505H57.4126V50.8764H57.4123C57.3491 55.6538 47.1456 59.5193 34.5681 59.5193C22.4179 59.5193 12.4832 55.9121 11.7651 51.3602C15.5402 54.0592 23.1459 55.9033 31.9134 55.9033Z" fill="#F5B047" fill-rule="evenodd"></path><ellipse cx="34.466" cy="40.8948" fill="url(&quot;#burg-yOnghEFhs94qysL1Pi_qJ-:rg3:-1&quot;)" rx="24.091" ry="9.57151"></ellipse><path clip-rule="evenodd" d="M32.88 48.6578C46.1851 48.6578 56.971 44.3725 56.971 39.0863C56.971 38.318 56.7432 37.5709 56.3129 36.855C57.7531 38.0823 58.5574 39.4512 58.5574 40.8947C58.5574 46.1809 47.7715 50.4662 34.4664 50.4662C23.095 50.4662 13.5637 47.336 11.0334 43.126C14.8674 46.3933 23.2081 48.6578 32.88 48.6578Z" fill="#4E2009" fill-rule="evenodd" opacity="0.5"></path><path d="M57.9274 36.8169C59.0132 34.4274 56.9866 32.3692 55.8376 31.6387C37.0396 29.2924 24.8233 29.4581 13.3096 32.1226C12.1468 32.3912 9.83032 33.4848 9.86657 35.7107C9.91189 38.4931 14.1696 39.4179 16.3827 40.2878C18.5958 41.1578 17.4617 44.0858 19.5655 44.3637C21.6694 44.6417 22.9674 42.6017 25.8818 42.7841C28.7962 42.9664 30.8906 46.9011 34.0874 47.2474C37.2841 47.5938 39.5066 44.807 41.3601 44.411C43.2135 44.015 45.3264 45.3175 47.1161 44.7712C48.9057 44.2249 50.2905 39.6302 51.8616 39.0702C53.4327 38.5102 56.5701 39.8038 57.9274 36.8169Z" fill="#6CDA76"></path><ellipse cx="34.4467" cy="32.345" fill="#388E4A" rx="21.5754" ry="7.77347"></ellipse><ellipse cx="34.4467" cy="31.3137" fill="url(&quot;#burg-yOnghEFhs94qysL1Pi_qJ-:rg3:-2&quot;)" rx="21.5754" ry="7.77347"></ellipse><rect fill="#E5484D" height="6.51424" width="43.1507" x="12.8713" y="24.8088"></rect><ellipse cx="34.4467" cy="28.2205" fill="#DA3036" rx="21.5754" ry="7.77347"></ellipse><rect fill="#DA3036" height="6.51424" width="43.1507" x="12.8713" y="21.7158"></rect><path d="M34.4468 8.78621C29.2975 8.73334 17.9069 10.6423 12.7306 18.7014C7.55434 26.7604 14.9839 29.8479 19.5245 31.3929C23.4876 32.7414 29.0279 33.7725 34.4469 33.7725C39.8657 33.7725 45.406 32.7414 49.3691 31.3929C53.9098 29.8479 61.3393 26.7604 56.163 18.7014C50.9867 10.6423 39.5962 8.73334 34.4468 8.78621C34.4468 8.78621 34.4468 8.78621 34.4468 8.78621Z" fill="url(&quot;#burg-yOnghEFhs94qysL1Pi_qJ-:rg3:-3&quot;)"></path><path clip-rule="evenodd" d="M45.0744 10.6238C47.3183 12.3532 50.3879 14.9477 51.501 16.7185C53.8638 20.4775 54.1186 23.4608 52.8495 25.7611C51.8524 27.5682 45.4274 34.1325 21.5183 32.0063C25.2385 33.0417 29.8857 33.7723 34.4469 33.7723C39.8658 33.7723 45.4061 32.7411 49.3692 31.3926C53.9098 29.8477 61.3394 26.7601 56.1631 18.7011C53.529 14.6 49.2856 12.0916 45.0744 10.6238Z" fill="#F5B047" fill-rule="evenodd"></path><path d="M43.0728 25.3365C43.0728 25.8075 42.6911 26.1892 42.2201 26.1892C41.7492 26.1892 41.3674 25.8075 41.3674 25.3365C41.3674 24.8656 42.2201 23.5403 42.2201 23.5403C42.2201 23.5403 43.0728 24.8656 43.0728 25.3365Z" fill="#C27500" opacity="0.4"></path><path d="M35.4415 25.5358C35.4415 26.0067 35.0597 26.3885 34.5888 26.3885C34.1179 26.3885 33.7361 26.0067 33.7361 25.5358C33.7361 25.0648 34.5888 23.7395 34.5888 23.7395C34.5888 23.7395 35.4415 25.0648 35.4415 25.5358Z" fill="#C27500" opacity="0.4"></path><path d="M39.2257 18.7323C39.2257 19.2032 38.8439 19.585 38.373 19.585C37.902 19.585 37.5203 19.2032 37.5203 18.7323C37.5203 18.2614 38.373 16.936 38.373 16.936C38.373 16.936 39.2257 18.2614 39.2257 18.7323Z" fill="#C27500" opacity="0.4"></path><path d="M35.2994 12.421C35.2994 12.892 34.9176 13.2737 34.4467 13.2737C33.9758 13.2737 33.594 12.892 33.594 12.421C33.594 11.9501 34.4467 10.6248 34.4467 10.6248C34.4467 10.6248 35.2994 11.9501 35.2994 12.421Z" fill="#C27500" opacity="0.4"></path><path d="M30.5211 18.3458C30.5211 18.8168 30.1393 19.1985 29.6684 19.1985C29.1974 19.1985 28.8157 18.8168 28.8157 18.3458C28.8157 17.8749 29.6684 16.5496 29.6684 16.5496C29.6684 16.5496 30.5211 17.8749 30.5211 18.3458Z" fill="#C27500" opacity="0.4"></path><path d="M26.8275 25.4447C26.8275 25.9156 26.4457 26.2974 25.9748 26.2974C25.5038 26.2974 25.1221 25.9156 25.1221 25.4447C25.1221 24.9738 25.9748 23.6484 25.9748 23.6484C25.9748 23.6484 26.8275 24.9738 26.8275 25.4447Z" fill="#C27500" opacity="0.4"></path><path d="M18.8018 23.7184C18.8018 24.1893 18.4201 24.5711 17.9491 24.5711C17.4782 24.5711 17.0964 24.1893 17.0964 23.7184C17.0964 23.2474 17.9491 21.9221 17.9491 21.9221C17.9491 21.9221 18.8018 23.2474 18.8018 23.7184Z" fill="#C27500" opacity="0.4"></path><path d="M23.2223 16.0831C23.2223 16.5541 22.8405 16.9358 22.3695 16.9358C21.8986 16.9358 21.5168 16.5541 21.5168 16.0831C21.5168 15.6122 22.3695 14.2869 22.3695 14.2869C22.3695 14.2869 23.2223 15.6122 23.2223 16.0831Z" fill="#C27500" opacity="0.4"></path><path d="M46.2254 15.9613C46.2254 16.4322 45.8437 16.814 45.3727 16.814C44.9018 16.814 44.52 16.4322 44.52 15.9613C44.52 15.4904 45.3727 14.165 45.3727 14.165C45.3727 14.165 46.2254 15.4904 46.2254 15.9613Z" fill="#C27500" opacity="0.4"></path><path d="M49.4942 24.12C49.4942 24.5909 49.1125 24.9727 48.6415 24.9727C48.1706 24.9727 47.7888 24.5909 47.7888 24.12C47.7888 23.6491 48.6415 22.3237 48.6415 22.3237C48.6415 22.3237 49.4942 23.6491 49.4942 24.12Z" fill="#C27500" opacity="0.4"></path><defs><linearGradient gradientUnits="userSpaceOnUse" id="burg-yOnghEFhs94qysL1Pi_qJ-:rg3:-0" x1="24.916" x2="30.2032" y1="42.2939" y2="60.7687"><stop stop-color="#FFD894"></stop><stop offset="0.9999" stop-color="#FFB93F"></stop><stop offset="1" stop-color="#FFC053"></stop></linearGradient><linearGradient gradientUnits="userSpaceOnUse" id="burg-yOnghEFhs94qysL1Pi_qJ-:rg3:-1" x1="22.0269" x2="34.466" y1="42" y2="50.4663"><stop stop-color="#CE6A04"></stop><stop offset="1" stop-color="#A35200"></stop></linearGradient><linearGradient gradientUnits="userSpaceOnUse" id="burg-yOnghEFhs94qysL1Pi_qJ-:rg3:-2" x1="34.4467" x2="47.5271" y1="23.5403" y2="35.0002"><stop stop-color="#FF868A"></stop><stop offset="1" stop-color="#E5484D"></stop></linearGradient><linearGradient gradientUnits="userSpaceOnUse" id="burg-yOnghEFhs94qysL1Pi_qJ-:rg3:-3" x1="24.5269" x2="34.4468" y1="9" y2="33.7725"><stop stop-color="#FFD894"></stop><stop offset="0.9999" stop-color="#FFB93F"></stop><stop offset="1" stop-color="#FFC053"></stop></linearGradient></defs></svg>